REM COMMENT "Generated by IcecastMetadataRecorder https://github.com/eshaz/icecast-metadata-js"
REM BR "16"
REM METAINT "64"
REM DATE "2020-07-29T21:16:11.222Z"
TITLE "isics-all"
FILE "isics-all.mp3" WAVE
  TRACK 1 AUDIO
    TITLE "2020-07-29T21:16:11.254Z TO:5105 Department of Public Safety - Area B Law 5B - DPS District #5 + #6 FROM:10971"
    INDEX 01 00:00:00
  TRACK 2 AUDIO
    TITLE "2020-07-29T21:16:12.630Z TO:52200 Mercy ONE Iowa Ground Dispatch FROM:10779527"
    INDEX 01 00:01:31
  TRACK 3 AUDIO
    TITLE "2020-07-29T21:16:28.726Z TO:1102 Polk County - Westcom Law Enforcement 2 FROM:1373"
    INDEX 01 00:17:38
  TRACK 4 AUDIO
    TITLE "2020-07-29T21:16:38.550Z TO:52200 Mercy ONE Iowa Ground Dispatch FROM:10779510"
    INDEX 01 00:27:25
  TRACK 5 AUDIO
    TITLE "2020-07-29T21:16:40.630Z TO:1102 Polk County - Westcom Law Enforcement 2 FROM:1006"
    INDEX 01 00:29:31
  TRACK 6 AUDIO
    TITLE "2020-07-29T21:16:43.446Z TO:1102 Polk County - Westcom Law Enforcement 2 FROM:1373"
    INDEX 01 00:32:17
  TRACK 7 AUDIO
    TITLE "2020-07-29T21:16:45.526Z TO:24756 Dallas County Fire Repeater Patch FROM:2559984"
    INDEX 01 00:34:23
  TRACK 8 AUDIO
    TITLE "2020-07-29T21:17:12.150Z TO:1102 Polk County - Westcom Law Enforcement 2 FROM:1006"
    INDEX 01 01:00:70
  TRACK 9 AUDIO
    TITLE "2020-07-29T21:17:14.934Z TO:24631 Dallas County Fire/EMS Operations FROM:2520309"
    INDEX 01 01:03:53
  TRACK 10 AUDIO
    TITLE "END"
    INDEX 01 01:06:40